<svg width="159" height="31" viewBox="0 0 159 31" fill="none" xmlns="http://www.w3.org/2000/svg">
<path d="M45.712 17.552L48.784 6.224H51.856L47.272 23.024H44.176L41.56 13.808L38.968 23.024H35.848L31.288 6.224H34.36L37.432 17.552L40.408 7.04H42.736L45.712 17.552ZM60.5933 10.712H63.5453V23.024H60.5933V22.448C59.8973 22.832 59.1053 23.096 58.2653 23.168C58.0973 23.192 57.9293 23.192 57.7613 23.192C54.3773 23.192 51.5693 20.456 51.4733 17.072C51.4253 15.368 52.0493 13.736 53.2493 12.512C54.4253 11.288 56.0333 10.616 57.7373 10.616C58.7453 10.616 59.7053 10.856 60.5933 11.288V10.712ZM60.5933 17.264V15.776C60.5933 15.32 60.4253 14.912 60.1613 14.624C59.5133 13.952 58.6733 13.568 57.7373 13.568C56.8493 13.568 55.9853 13.928 55.3613 14.576C54.7373 15.224 54.4013 16.088 54.4253 17C54.4733 18.752 55.9853 20.216 57.7613 20.216C57.8333 20.216 57.9293 20.216 58.0253 20.216C59.4653 20.096 60.5933 18.8 60.5933 17.264ZM72.7443 20.24L73.8003 23.024C73.2003 23.24 72.5523 23.36 71.9043 23.36C69.0003 23.36 66.6483 21.008 66.6483 18.104V13.88H65.0643V10.904H66.6483V7.952H69.6003V10.904H72.4323V13.88H69.6003V18.104C69.6003 19.376 70.6323 20.408 71.9043 20.408C72.1923 20.408 72.4803 20.36 72.7443 20.24ZM76.6456 9.536C75.7096 9.536 74.9896 8.792 74.9896 7.88C74.9896 6.944 75.7096 6.224 76.6456 6.224C77.5576 6.224 78.3016 6.944 78.3016 7.88C78.3016 8.792 77.5576 9.536 76.6456 9.536ZM78.1096 23.024H75.1576V10.712H78.1096V23.024ZM91.8344 15.752C91.8344 15.776 91.8344 15.776 91.8344 15.776V17.264V27.56H88.8824V22.448C88.1864 22.832 87.3944 23.096 86.5544 23.168C86.3864 23.192 86.1944 23.192 86.0504 23.192C82.6664 23.192 79.8584 20.456 79.7624 17.072C79.7144 15.368 80.3384 13.736 81.5384 12.512C82.7144 11.288 84.3224 10.616 86.0504 10.616C87.0344 10.616 87.9944 10.856 88.8824 11.288V10.76H91.8344V15.752ZM88.8824 17.264V15.776C88.8824 15.32 88.7144 14.912 88.4504 14.624C87.8264 13.952 86.9624 13.568 86.0504 13.568C85.1384 13.568 84.2984 13.928 83.6504 14.576C83.0264 15.224 82.6904 16.088 82.7144 17C82.7624 18.752 84.2984 20.216 86.0504 20.216C86.1464 20.216 86.2184 20.216 86.3144 20.216C87.7544 20.096 88.8824 18.8 88.8824 17.264ZM102.593 10.712H105.545V23.024H102.593V22.448C101.897 22.832 101.105 23.096 100.265 23.168C100.097 23.192 99.9293 23.192 99.7613 23.192C96.3773 23.192 93.5693 20.456 93.4733 17.072C93.4253 15.368 94.0493 13.736 95.2493 12.512C96.4253 11.288 98.0333 10.616 99.7373 10.616C100.745 10.616 101.705 10.856 102.593 11.288V10.712ZM102.593 17.264V15.776C102.593 15.32 102.425 14.912 102.161 14.624C101.513 13.952 100.673 13.568 99.7373 13.568C98.8493 13.568 97.9853 13.928 97.3613 14.576C96.7373 15.224 96.4013 16.088 96.4253 17C96.4733 18.752 97.9853 20.216 99.7613 20.216C99.8333 20.216 99.9293 20.216 100.025 20.216C101.465 20.096 102.593 18.8 102.593 17.264ZM116.174 6.224V20.048H123.326V23H113.222V6.224H116.174ZM126.028 9.536C125.092 9.536 124.372 8.792 124.372 7.88C124.372 6.944 125.092 6.224 126.028 6.224C126.94 6.224 127.684 6.944 127.684 7.88C127.684 8.792 126.94 9.536 126.028 9.536ZM127.492 23.024H124.54V10.712H127.492V23.024ZM137.377 10.712H140.497L136.297 23H132.913L128.905 10.712H132.025L134.641 18.704L137.377 10.712ZM152.003 16.544V18.032H143.939C144.203 18.848 144.755 19.568 145.475 19.928C146.651 20.552 149.027 20.312 150.299 19.688L151.595 22.352C150.587 22.832 148.979 23.264 147.323 23.264C146.195 23.264 145.067 23.072 144.107 22.568C142.139 21.536 140.843 19.376 140.795 17.072C140.747 15.296 141.395 13.568 142.595 12.344C143.675 11.216 145.115 10.616 146.627 10.616C146.795 10.616 146.963 10.616 147.107 10.64C149.867 10.88 152.003 13.472 152.003 16.544ZM144.227 15.056H148.715C148.331 14.24 147.635 13.664 146.843 13.592C146.075 13.52 145.307 13.808 144.707 14.408C144.515 14.6 144.371 14.816 144.227 15.056Z" fill="white"/>
<g filter="url(#filter0_dd_41_27)">
<path d="M21.742 2.91333H9.8065C6.55179 2.91333 3.91333 5.55179 3.91333 8.8065V20.742C3.91333 23.9968 6.55179 26.6352 9.8065 26.6352H21.742C24.9968 26.6352 27.6352 23.9968 27.6352 20.742V8.8065C27.6352 5.55179 24.9968 2.91333 21.742 2.91333Z" fill="white"/>
<path d="M21.742 2.91333H9.8065C6.55179 2.91333 3.91333 5.55179 3.91333 8.8065V20.742C3.91333 23.9968 6.55179 26.6352 9.8065 26.6352H21.742C24.9968 26.6352 27.6352 23.9968 27.6352 20.742V8.8065C27.6352 5.55179 24.9968 2.91333 21.742 2.91333Z" fill="url(#paint0_linear_41_27)"/>
</g>
<mask id="mask0_41_27" style="mask-type:luminance" maskUnits="userSpaceOnUse" x="5" y="9" width="17" height="14">
<path d="M5 9H21.3962V22.2678H5V9Z" fill="white"/>
</mask>
<g mask="url(#mask0_41_27)">
<path d="M5.00046 9.00598L5.97271 9.34417L10.1905 10.8109L11.5346 11.2781L10.7577 11.7307L9.93698 12.2087L13.1768 17.5489L13.7562 16.5936L15.8016 13.222L16.416 12.2087L16.0057 11.9696L14.8186 11.2779L16.27 10.7734L20.3805 9.34417L21.3529 9.00598L20.4953 10.3965L20.3805 10.5828L19.5656 11.9046L17.2653 15.6348L15.2151 18.9596L13.75 21.3358L13.1764 22.2658L12.6029 21.3358L5.97271 10.5828L5.00046 9.00598Z" fill="url(#paint1_linear_41_27)"/>
</g>
<path d="M15.2151 18.9595L13.7562 16.5936L15.8016 13.2219L17.2653 15.6348L15.2151 18.9595Z" fill="#545454"/>
<mask id="mask1_41_27" style="mask-type:luminance" maskUnits="userSpaceOnUse" x="9" y="9" width="17" height="14">
<path d="M9.62213 9H26V22.2678H9.62213V9Z" fill="white"/>
</mask>
<g mask="url(#mask1_41_27)">
<path d="M26.0174 9.00598L25.0454 10.5828L18.4149 21.3358L17.8413 22.2658L17.2676 21.3358L10.6374 10.5828L9.66513 9.00598L10.6374 9.34417L16.1995 11.2784L14.6017 12.2087L17.8415 17.5489L21.0809 12.2087L19.4833 11.2779L25.0454 9.34417L26.0174 9.00598Z" fill="url(#paint2_linear_41_27)"/>
</g>
<defs>
<filter id="filter0_dd_41_27" x="0.91333" y="0.91333" width="29.7219" height="29.7219" filterUnits="userSpaceOnUse" color-interpolation-filters="sRGB">
<feFlood flood-opacity="0" result="BackgroundImageFix"/>
<feColorMatrix in="SourceAlpha" type="matrix" values="0 0 0 0 0 0 0 0 0 0 0 0 0 0 0 0 0 0 127 0" result="hardAlpha"/>
<feOffset dy="1"/>
<feGaussianBlur stdDeviation="1"/>
<feColorMatrix type="matrix" values="0 0 0 0 0.0627451 0 0 0 0 0.0941176 0 0 0 0 0.156863 0 0 0 0.06 0"/>
<feBlend mode="normal" in2="BackgroundImageFix" result="effect1_dropShadow_41_27"/>
<feColorMatrix in="SourceAlpha" type="matrix" values="0 0 0 0 0 0 0 0 0 0 0 0 0 0 0 0 0 0 127 0" result="hardAlpha"/>
<feOffset dy="1"/>
<feGaussianBlur stdDeviation="1.5"/>
<feColorMatrix type="matrix" values="0 0 0 0 0.0627451 0 0 0 0 0.0941176 0 0 0 0 0.156863 0 0 0 0.1 0"/>
<feBlend mode="normal" in2="effect1_dropShadow_41_27" result="effect2_dropShadow_41_27"/>
<feBlend mode="normal" in="SourceGraphic" in2="effect2_dropShadow_41_27" result="shape"/>
</filter>
<linearGradient id="paint0_linear_41_27" x1="15.7743" y1="2.83873" x2="15.7743" y2="26.7098" gradientUnits="userSpaceOnUse">
<stop stop-color="white"/>
<stop offset="1" stop-color="#D0D5DD"/>
</linearGradient>
<linearGradient id="paint1_linear_41_27" x1="13.1767" y1="9.00598" x2="13.1767" y2="22.2658" gradientUnits="userSpaceOnUse">
<stop stop-color="#0076C1"/>
<stop offset="0.07" stop-color="#0B82C6"/>
<stop offset="0.28" stop-color="#269ED3"/>
<stop offset="0.45" stop-color="#36AFDA"/>
<stop offset="0.59" stop-color="#3CB5DD"/>
</linearGradient>
<linearGradient id="paint2_linear_41_27" x1="17.8413" y1="9.00598" x2="17.8413" y2="22.2658" gradientUnits="userSpaceOnUse">
<stop stop-color="#0076C1"/>
<stop offset="0.07" stop-color="#0B82C6"/>
<stop offset="0.28" stop-color="#269ED3"/>
<stop offset="0.45" stop-color="#36AFDA"/>
<stop offset="0.59" stop-color="#3CB5DD"/>
</linearGradient>
</defs>
</svg>
